<svg width="494" height="124" viewBox="0 0 494 124" fill="none" xmlns="http://www.w3.org/2000/svg">
<path d="M7.7 104V29.5H17.2L59 87.2L54.5 87.9V29.5H66.2V104H56.7L15.2 45.9L19.5 45.1V104H7.7ZM105.926 105.2C100.526 105.2 95.7258 103.967 91.5258 101.5C87.3924 98.9667 84.1591 95.5667 81.8258 91.3C79.4924 86.9667 78.3258 82.1333 78.3258 76.8C78.3258 71.3333 79.4924 66.5 81.8258 62.3C84.2258 58.1 87.4258 54.8 91.4258 52.4C95.4258 49.9333 99.9591 48.7 105.026 48.7C109.092 48.7 112.726 49.4 115.926 50.8C119.126 52.2 121.826 54.1333 124.026 56.6C126.226 59 127.892 61.7667 129.026 64.9C130.226 68.0333 130.826 71.3667 130.826 74.9C130.826 75.7667 130.792 76.6667 130.726 77.6C130.659 78.5333 130.526 79.4 130.326 80.2H87.2258V71.2H123.926L118.526 75.3C119.192 72.0333 118.959 69.1333 117.826 66.6C116.759 64 115.092 61.9667 112.826 60.5C110.626 58.9667 108.026 58.2 105.026 58.2C102.026 58.2 99.3591 58.9667 97.0258 60.5C94.6924 61.9667 92.8924 64.1 91.6258 66.9C90.3591 69.6333 89.8591 72.9667 90.1258 76.9C89.7924 80.5667 90.2924 83.7667 91.6258 86.5C93.0258 89.2333 94.9591 91.3667 97.4258 92.9C99.9591 94.4333 102.826 95.2 106.026 95.2C109.292 95.2 112.059 94.4667 114.326 93C116.659 91.5333 118.492 89.6333 119.826 87.3L129.026 91.8C127.959 94.3333 126.292 96.6333 124.026 98.7C121.826 100.7 119.159 102.3 116.026 103.5C112.959 104.633 109.592 105.2 105.926 105.2ZM135.477 104L154.377 76.9L135.477 49.9H148.777L164.277 72.5H157.877L173.377 49.9H186.677L167.677 76.9L186.577 104H173.277L157.977 81.3H164.177L148.777 104H135.477ZM217.793 104.6C212.126 104.6 207.726 103 204.593 99.8C201.46 96.6 199.893 92.1 199.893 86.3V60.1H190.393V49.9H191.893C194.426 49.9 196.393 49.1667 197.793 47.7C199.193 46.2333 199.893 44.2333 199.893 41.7V37.5H211.193V49.9H223.493V60.1H211.193V85.8C211.193 87.6667 211.493 89.2667 212.093 90.6C212.693 91.8667 213.66 92.8667 214.993 93.6C216.326 94.2667 218.06 94.6 220.193 94.6C220.726 94.6 221.326 94.5667 221.993 94.5C222.66 94.4333 223.293 94.3667 223.893 94.3V104C222.96 104.133 221.926 104.267 220.793 104.4C219.66 104.533 218.66 104.6 217.793 104.6ZM262.12 105.2C257.454 105.2 253.12 104.333 249.12 102.6C245.12 100.8 241.72 98.3667 238.92 95.3C236.12 92.2333 234.054 88.7 232.72 84.7L242.72 80.5C244.52 85.1 247.154 88.6333 250.62 91.1C254.087 93.5667 258.087 94.8 262.62 94.8C265.287 94.8 267.62 94.4 269.62 93.6C271.62 92.7333 273.154 91.5333 274.22 90C275.354 88.4667 275.92 86.7 275.92 84.7C275.92 81.9667 275.154 79.8 273.62 78.2C272.087 76.6 269.82 75.3333 266.82 74.4L252.82 70C247.22 68.2667 242.954 65.6333 240.02 62.1C237.087 58.5 235.62 54.3 235.62 49.5C235.62 45.3 236.654 41.6333 238.72 38.5C240.787 35.3 243.62 32.8 247.22 31C250.887 29.2 255.054 28.3 259.72 28.3C264.187 28.3 268.254 29.1 271.92 30.7C275.587 32.2333 278.72 34.3667 281.32 37.1C283.987 39.8333 285.92 43 287.12 46.6L277.32 50.9C275.854 46.9667 273.554 43.9333 270.42 41.8C267.354 39.6667 263.787 38.6 259.72 38.6C257.254 38.6 255.087 39.0333 253.22 39.9C251.354 40.7 249.887 41.9 248.82 43.5C247.82 45.0333 247.32 46.8333 247.32 48.9C247.32 51.3 248.087 53.4333 249.62 55.3C251.154 57.1667 253.487 58.5667 256.62 59.5L269.62 63.6C275.554 65.4 280.02 68 283.02 71.4C286.02 74.7333 287.52 78.9 287.52 83.9C287.52 88.0333 286.42 91.7 284.22 94.9C282.087 98.1 279.12 100.633 275.32 102.5C271.52 104.3 267.12 105.2 262.12 105.2ZM323.066 104.6C317.4 104.6 313 103 309.866 99.8C306.733 96.6 305.166 92.1 305.166 86.3V60.1H295.666V49.9H297.166C299.7 49.9 301.666 49.1667 303.066 47.7C304.466 46.2333 305.166 44.2333 305.166 41.7V37.5H316.466V49.9H328.766V60.1H316.466V85.8C316.466 87.6667 316.766 89.2667 317.366 90.6C317.966 91.8667 318.933 92.8667 320.266 93.6C321.6 94.2667 323.333 94.6 325.466 94.6C326 94.6 326.6 94.5667 327.266 94.5C327.933 94.4333 328.566 94.3667 329.166 94.3V104C328.233 104.133 327.2 104.267 326.066 104.4C324.933 104.533 323.933 104.6 323.066 104.6ZM364.617 105.2C359.217 105.2 354.417 103.967 350.217 101.5C346.084 98.9667 342.851 95.5667 340.517 91.3C338.184 86.9667 337.017 82.1333 337.017 76.8C337.017 71.3333 338.184 66.5 340.517 62.3C342.917 58.1 346.117 54.8 350.117 52.4C354.117 49.9333 358.651 48.7 363.717 48.7C367.784 48.7 371.417 49.4 374.617 50.8C377.817 52.2 380.517 54.1333 382.717 56.6C384.917 59 386.584 61.7667 387.717 64.9C388.917 68.0333 389.517 71.3667 389.517 74.9C389.517 75.7667 389.484 76.6667 389.417 77.6C389.351 78.5333 389.217 79.4 389.017 80.2H345.917V71.2H382.617L377.217 75.3C377.884 72.0333 377.651 69.1333 376.517 66.6C375.451 64 373.784 61.9667 371.517 60.5C369.317 58.9667 366.717 58.2 363.717 58.2C360.717 58.2 358.051 58.9667 355.717 60.5C353.384 61.9667 351.584 64.1 350.317 66.9C349.051 69.6333 348.551 72.9667 348.817 76.9C348.484 80.5667 348.984 83.7667 350.317 86.5C351.717 89.2333 353.651 91.3667 356.117 92.9C358.651 94.4333 361.517 95.2 364.717 95.2C367.984 95.2 370.751 94.4667 373.017 93C375.351 91.5333 377.184 89.6333 378.517 87.3L387.717 91.8C386.651 94.3333 384.984 96.6333 382.717 98.7C380.517 100.7 377.851 102.3 374.717 103.5C371.651 104.633 368.284 105.2 364.617 105.2ZM400.545 124V49.9H411.345V61.1L410.045 58.5C412.045 55.4333 414.712 53.0333 418.045 51.3C421.379 49.5667 425.179 48.7 429.445 48.7C434.579 48.7 439.179 49.9333 443.245 52.4C447.379 54.8667 450.612 58.2333 452.945 62.5C455.345 66.7667 456.545 71.5667 456.545 76.9C456.545 82.2333 455.345 87.0333 452.945 91.3C450.612 95.5667 447.412 98.9667 443.345 101.5C439.279 103.967 434.645 105.2 429.445 105.2C425.245 105.2 421.412 104.333 417.945 102.6C414.545 100.867 411.912 98.3667 410.045 95.1L411.845 93V124H400.545ZM428.345 94.7C431.545 94.7 434.379 93.9333 436.845 92.4C439.312 90.8667 441.245 88.7667 442.645 86.1C444.112 83.3667 444.845 80.3 444.845 76.9C444.845 73.5 444.112 70.4667 442.645 67.8C441.245 65.1333 439.312 63.0333 436.845 61.5C434.379 59.9667 431.545 59.2 428.345 59.2C425.212 59.2 422.379 59.9667 419.845 61.5C417.379 63.0333 415.412 65.1333 413.945 67.8C412.545 70.4667 411.845 73.5 411.845 76.9C411.845 80.3 412.545 83.3667 413.945 86.1C415.412 88.7667 417.379 90.8667 419.845 92.4C422.379 93.9333 425.212 94.7 428.345 94.7Z" fill="url(#paint0_linear_3_16)"/>
<path d="M493.099 29.6328C493.099 26.9273 490.816 24.7341 488 24.7341H442.107C439.29 24.7341 437.007 26.9273 437.007 29.6328C437.007 32.3383 439.29 34.5315 442.107 34.5315H482.901V73.7214C482.901 76.4269 485.184 78.6201 488 78.6201C490.816 78.6201 493.099 76.4269 493.099 73.7214V29.6328ZM452.318 63.9115L455.924 67.3754L491.606 33.0967L488 29.6328L484.394 26.1689L448.712 60.4476L452.318 63.9115Z" fill="url(#paint1_linear_3_16)"/>
<defs>
<linearGradient id="paint0_linear_3_16" x1="0" y1="61.5" x2="480.656" y2="61.5" gradientUnits="userSpaceOnUse">
<stop stop-color="#4F46E5" stop-opacity="0.8"/>
<stop offset="1" stop-color="#4338CA"/>
</linearGradient>
<linearGradient id="paint1_linear_3_16" x1="452.679" y1="64.2579" x2="486.93" y2="28.6047" gradientUnits="userSpaceOnUse">
<stop stop-color="#4F46E5" stop-opacity="0.8"/>
<stop offset="1" stop-color="#4338CA"/>
</linearGradient>
</defs>
</svg>
