<svg width="480" height="122" viewBox="0 0 480 122" fill="none" xmlns="http://www.w3.org/2000/svg">
<path d="M66.9389 24.2727V97H55.2202L20.9517 47.4616H20.348V97H7.1733V24.2727H18.9631L53.196 73.8466H53.8352V24.2727H66.9389ZM104.874 98.0653C99.4052 98.0653 94.6822 96.929 90.7049 94.6562C86.7513 92.3598 83.7092 89.1165 81.5785 84.9261C79.4478 80.7121 78.3825 75.7524 78.3825 70.0469C78.3825 64.4361 79.4478 59.5118 81.5785 55.2741C83.7328 51.0128 86.7395 47.6984 90.5984 45.331C94.4573 42.9399 98.9909 41.7443 104.199 41.7443C107.561 41.7443 110.733 42.2888 113.716 43.3778C116.723 44.4432 119.374 46.1004 121.671 48.3494C123.991 50.5985 125.814 53.4631 127.14 56.9432C128.465 60.3996 129.128 64.5189 129.128 69.3011V73.2429H84.4194V64.5781H116.806C116.782 62.116 116.249 59.9261 115.208 58.0085C114.166 56.0672 112.71 54.5402 110.84 53.4276C108.993 52.3149 106.839 51.7585 104.377 51.7585C101.749 51.7585 99.4407 52.3977 97.4521 53.6761C95.4634 54.9309 93.9128 56.5881 92.8001 58.6477C91.7111 60.6837 91.1547 62.9209 91.131 65.3594V72.9233C91.131 76.0956 91.7111 78.8182 92.8711 81.0909C94.0311 83.34 95.6528 85.0682 97.7362 86.2756C99.8195 87.4593 102.258 88.0511 105.051 88.0511C106.922 88.0511 108.614 87.7907 110.13 87.2699C111.645 86.7254 112.959 85.9323 114.071 84.8906C115.184 83.849 116.025 82.5587 116.593 81.0199L128.596 82.3693C127.838 85.5417 126.394 88.3116 124.263 90.679C122.156 93.0227 119.457 94.8456 116.167 96.1477C112.876 97.4261 109.112 98.0653 104.874 98.0653ZM149.343 42.4545L160.352 62.5895L171.538 42.4545H185.138L168.697 69.7273L185.423 97H171.893L160.352 77.3622L148.917 97H135.281L151.9 69.7273L135.707 42.4545H149.343ZM222.319 42.4545V52.3977H190.962V42.4545H222.319ZM198.704 29.3864H211.559V80.5938C211.559 82.322 211.819 83.6477 212.34 84.571C212.885 85.4706 213.595 86.0862 214.471 86.4176C215.347 86.7491 216.317 86.9148 217.383 86.9148C218.188 86.9148 218.922 86.8556 219.585 86.7372C220.271 86.6188 220.792 86.5123 221.147 86.4176L223.313 96.4673C222.627 96.7041 221.644 96.9645 220.366 97.2486C219.111 97.5327 217.572 97.6984 215.749 97.7457C212.53 97.8404 209.629 97.3551 207.049 96.2898C204.469 95.2008 202.421 93.5199 200.906 91.2472C199.414 88.9744 198.68 86.1335 198.704 82.7244V29.3864ZM273.162 44.2656C272.831 41.1643 271.434 38.7495 268.972 37.0213C266.534 35.2931 263.361 34.429 259.455 34.429C256.709 34.429 254.353 34.8433 252.388 35.6719C250.423 36.5005 248.92 37.625 247.878 39.0455C246.837 40.4659 246.304 42.0876 246.28 43.9105C246.28 45.4257 246.623 46.7396 247.31 47.8523C248.02 48.965 248.979 49.9119 250.186 50.6932C251.394 51.4508 252.731 52.09 254.199 52.6108C255.667 53.1316 257.147 53.5696 258.638 53.9247L265.456 55.6293C268.203 56.2685 270.842 57.1326 273.375 58.2216C275.932 59.3106 278.217 60.6837 280.229 62.3409C282.265 63.9981 283.875 65.9986 285.059 68.3423C286.242 70.6861 286.834 73.4323 286.834 76.581C286.834 80.8423 285.745 84.5947 283.567 87.8381C281.389 91.0578 278.24 93.5791 274.121 95.402C270.025 97.2012 265.066 98.1009 259.242 98.1009C253.584 98.1009 248.671 97.2249 244.505 95.473C240.362 93.7211 237.118 91.1643 234.775 87.8026C232.454 84.4408 231.2 80.3452 231.01 75.5156H243.972C244.161 78.0488 244.943 80.1558 246.316 81.8366C247.689 83.5175 249.476 84.7723 251.678 85.6009C253.903 86.4295 256.389 86.8438 259.135 86.8438C262 86.8438 264.509 86.4176 266.664 85.5653C268.842 84.6894 270.546 83.482 271.777 81.9432C273.008 80.3807 273.636 78.5578 273.659 76.4744C273.636 74.5805 273.079 73.018 271.99 71.7869C270.901 70.5322 269.374 69.4905 267.409 68.6619C265.468 67.8097 263.195 67.0521 260.591 66.3892L252.317 64.2585C246.328 62.7197 241.593 60.3878 238.113 57.2628C234.656 54.1141 232.928 49.9356 232.928 44.7273C232.928 40.4422 234.088 36.6899 236.408 33.4702C238.752 30.2505 241.936 27.7528 245.961 25.9773C249.985 24.178 254.542 23.2784 259.632 23.2784C264.793 23.2784 269.315 24.178 273.198 25.9773C277.104 27.7528 280.17 30.2268 282.395 33.3991C284.621 36.5478 285.769 40.17 285.84 44.2656H273.162ZM325.249 42.4545V52.3977H293.892V42.4545H325.249ZM301.634 29.3864H314.489V80.5938C314.489 82.322 314.749 83.6477 315.27 84.571C315.814 85.4706 316.525 86.0862 317.401 86.4176C318.277 86.7491 319.247 86.9148 320.312 86.9148C321.117 86.9148 321.851 86.8556 322.514 86.7372C323.201 86.6188 323.722 86.5123 324.077 86.4176L326.243 96.4673C325.556 96.7041 324.574 96.9645 323.295 97.2486C322.041 97.5327 320.502 97.6984 318.679 97.7457C315.459 97.8404 312.559 97.3551 309.979 96.2898C307.398 95.2008 305.35 93.5199 303.835 91.2472C302.344 88.9744 301.61 86.1335 301.634 82.7244V29.3864ZM359.561 98.0653C354.093 98.0653 349.37 96.929 345.392 94.6562C341.439 92.3598 338.397 89.1165 336.266 84.9261C334.135 80.7121 333.07 75.7524 333.07 70.0469C333.07 64.4361 334.135 59.5118 336.266 55.2741C338.42 51.0128 341.427 47.6984 345.286 45.331C349.145 42.9399 353.678 41.7443 358.887 41.7443C362.248 41.7443 365.421 42.2888 368.404 43.3778C371.41 44.4432 374.062 46.1004 376.358 48.3494C378.678 50.5985 380.501 53.4631 381.827 56.9432C383.153 60.3996 383.816 64.5189 383.816 69.3011V73.2429H339.107V64.5781H371.493C371.47 62.116 370.937 59.9261 369.895 58.0085C368.854 56.0672 367.398 54.5402 365.527 53.4276C363.681 52.3149 361.526 51.7585 359.064 51.7585C356.436 51.7585 354.128 52.3977 352.14 53.6761C350.151 54.9309 348.6 56.5881 347.488 58.6477C346.399 60.6837 345.842 62.9209 345.819 65.3594V72.9233C345.819 76.0956 346.399 78.8182 347.559 81.0909C348.719 83.34 350.34 85.0682 352.424 86.2756C354.507 87.4593 356.945 88.0511 359.739 88.0511C361.609 88.0511 363.302 87.7907 364.817 87.2699C366.332 86.7254 367.646 85.9323 368.759 84.8906C369.872 83.849 370.712 82.5587 371.28 81.0199L383.283 82.3693C382.525 85.5417 381.081 88.3116 378.951 90.679C376.844 93.0227 374.145 94.8456 370.854 96.1477C367.563 97.4261 363.799 98.0653 359.561 98.0653ZM394.691 117.455V42.4545H407.333V51.4744H408.079C408.742 50.1487 409.677 48.7401 410.884 47.2486C412.092 45.7334 413.725 44.4432 415.785 43.3778C417.844 42.2888 420.472 41.7443 423.668 41.7443C427.882 41.7443 431.682 42.8215 435.067 44.9759C438.477 47.1065 441.175 50.267 443.164 54.4574C445.176 58.6241 446.183 63.7377 446.183 69.7983C446.183 75.7879 445.2 80.8778 443.235 85.0682C441.27 89.2585 438.595 92.4545 435.21 94.6562C431.824 96.858 427.989 97.9588 423.704 97.9588C420.579 97.9588 417.987 97.438 415.927 96.3963C413.867 95.3546 412.21 94.0999 410.955 92.6321C409.724 91.1406 408.765 89.732 408.079 88.4062H407.546V117.455H394.691ZM407.298 69.7273C407.298 73.2547 407.795 76.3442 408.789 78.9957C409.807 81.6473 411.263 83.7187 413.157 85.2102C415.075 86.678 417.395 87.4119 420.117 87.4119C422.958 87.4119 425.337 86.6544 427.255 85.1392C429.173 83.6004 430.617 81.5052 431.587 78.8537C432.582 76.1785 433.079 73.1364 433.079 69.7273C433.079 66.3419 432.594 63.3352 431.623 60.7074C430.652 58.0795 429.208 56.0199 427.29 54.5284C425.373 53.0369 422.982 52.2912 420.117 52.2912C417.371 52.2912 415.039 53.0133 413.121 54.4574C411.204 55.9015 409.748 57.9257 408.754 60.5298C407.783 63.134 407.298 66.1998 407.298 69.7273Z" fill="url(#paint0_linear_3_16)"/>
<path d="M479.527 19.4732C479.527 16.7118 477.288 14.4732 474.527 14.4732L429.527 14.4732C426.766 14.4732 424.527 16.7118 424.527 19.4732C424.527 22.2346 426.766 24.4732 429.527 24.4732H469.527V64.4732C469.527 67.2346 471.766 69.4732 474.527 69.4732C477.288 69.4732 479.527 67.2346 479.527 64.4732L479.527 19.4732ZM410.887 83.1128L414.423 86.6483L478.062 23.0087L474.527 19.4732L470.991 15.9376L407.352 79.5773L410.887 83.1128Z" fill="url(#paint1_linear_3_16)"/>
<defs>
<linearGradient id="paint0_linear_3_16" x1="0" y1="61" x2="458" y2="61" gradientUnits="userSpaceOnUse">
<stop stop-color="#4F46E5" stop-opacity="0.8"/>
<stop offset="1" stop-color="#4338CA"/>
</linearGradient>
<linearGradient id="paint1_linear_3_16" x1="411.241" y1="83.4663" x2="474.88" y2="19.8267" gradientUnits="userSpaceOnUse">
<stop stop-color="#4F46E5" stop-opacity="0.8"/>
<stop offset="1" stop-color="#4338CA"/>
</linearGradient>
</defs>
</svg>
